# xmcd
#
# Track frame offsets: 
#        150
#        20011
#        37086
#        51075
#        63829
#        79504
#        96336
#        113376
#        131880
#        148370
#        165679
#        182740
#        199948
#        214650
#        231859
#
# Disc length: 3295 seconds
#
# Revision: 0
# Processed by: cddbd v1.5.1PL0 Copyright (c) Steve Scherf et al.
# Submitted via: ExactAudioCopy v0.95a5
#
DISCID=d80cdd0f
DTITLE=蔡琴 - 情是什麼
DYEAR=1900
DGENRE=Country
TTITLE0=情是什麼
TTITLE1=直到那一天
TTITLE2=被遺[忘的時光
TTITLE3=想你的時候
TTITLE4=希望還能遇見你
TTITLE5=情迷
TTITLE6=未完成的歌
TTITLE7=愛与酒
TTITLE8=永久的愛
TTITLE9=如果你要離去
TTITLE10=假裝我們還相戀
TTITLE11=想你一整夜
TTITLE12=永遠永遠不變
TTITLE13=愛情的喜悅
TTITLE14=我怎能離開你
EXTD=
EXTT0=
EXTT1=
EXTT2=
EXTT3=
EXTT4=
EXTT5=
EXTT6=
EXTT7=
EXTT8=
EXTT9=
EXTT10=
EXTT11=
EXTT12=
EXTT13=
EXTT14=
PLAYORDER=
